<svg xmlns="http://www.w3.org/2000/svg" version="1.1" xmlns:xlink="http://www.w3.org/1999/xlink" xmlns:svgjs="http://svgjs.com/svgjs" width="1440" height="560" preserveAspectRatio="none" viewBox="0 0 1440 560"><g mask="url(&quot;#SvgjsMask1011&quot;)" fill="none"><rect width="1440" height="560" x="0" y="0" fill="rgba(248, 250, 253, 1)"></rect><path d="M140 88.89C94.15 88.89 48 117.03 48 140C48 161.75 94.1 178.33 140 178.33C184.82 178.33 229.44 161.72 229.44 140C229.44 117 184.87 88.89 140 88.89" stroke="rgba(51, 121, 194, 0.19)" stroke-width="2"></path><path d="M420 42C390.53 42 347.41 100.59 347.41 140C347.41 165.65 386.12 172.13 420 172.13C440.91 172.13 456.98 160.73 456.98 140C456.98 95.67 445.31 42 420 42" stroke="rgba(51, 121, 194, 0.19)" stroke-width="2"></path><path d="M840 94.59C810.44 94.59 800.66 110.91 774.12 140C730.66 187.62 744 201.71 700 248C677.47 271.71 643.99 252.89 641.05 280C634.66 338.89 700.99 362.8 681.33 420C660.47 480.7 616.66 515.79 560 515.79C512.66 515.79 518.44 466.11 473.33 420C448.44 394.55 451.82 386.86 420 372.68C355.16 343.78 348.96 330.38 280 333.85C208.96 337.42 207.65 355.81 140 386.75C113.47 398.88 100.24 394.46 91.64 420C71.07 481.08 110.64 515.75 81.67 560C64.82 585.75 15.04 585.79 0 560C-25.79 515.79 0 490 0 420C0 350 0 350 0 280C0 210 0 210 0 140C0 70 -35 35 0 0C35 -35 70 0 140 0C210 0 210 0 280 0C350 0 350 0 420 0C490 0 490 0 560 0C630 0 630 0 700 0C770 0 770 0 840 0C910 0 910 0 980 0C1050 0 1050 0 1120 0C1190 0 1190 0 1260 0C1330 0 1330 0 1400 0C1470 0 1500.69 -30.69 1540 0C1570.69 23.95 1570.52 89.74 1540 109.27C1500.52 134.54 1461.37 78.95 1400 89.6C1372.84 94.31 1362.94 116.6 1362.94 140C1362.94 158.82 1377.14 165.01 1400 174.05C1465.67 200.01 1492.84 174.31 1540 210C1562.84 227.28 1540 245 1540 280C1540 350 1540 350 1540 420C1540 490 1575 525 1540 560C1505 595 1470 560 1400 560C1356.81 560 1353.26 570.98 1313.62 560C1283.26 551.59 1290.69 531.62 1260 521.23C1193.88 498.85 1179.32 482.01 1120 494.47C1087 501.4 1107.14 545.12 1075.36 560C1037.14 577.89 1027.68 560 980 560C928.6 560 915.45 580.98 877.19 560C845.45 542.59 868.55 512.8 840 483.23C800.96 442.8 742 455.66 742 420C742 379.5 792.12 376.6 840 330.91C865.47 306.6 882.67 311.87 888.7 280C900.73 216.41 893.36 205.62 876.13 140C869.01 112.91 861.44 94.59 840 94.59" stroke="rgba(51, 121, 194, 0.19)" stroke-width="2"></path><path d="M1120 74.67C1103.11 74.67 1096.39 110.08 1096.39 140C1096.39 154.14 1106.23 162.79 1120 162.79C1143.16 162.79 1170.26 157.67 1170.26 140C1170.26 113.61 1140.04 74.67 1120 74.67" stroke="rgba(51, 121, 194, 0.19)" stroke-width="2"></path><path d="M176.36 560C176.36 527.62 227.07 450.68 280 450.68C335.09 450.68 392.39 528.16 392.39 560C392.39 582.82 336.19 560 280 560C228.18 560 176.36 582.28 176.36 560" stroke="rgba(51, 121, 194, 0.19)" stroke-width="2"></path><path d="M140 33.33C70.56 56.91 45.86 88.16 0 77.24C-24.14 71.49 -24.89 13.73 0 0C45.11 -24.89 70 0 140 0C183.75 0 227.5 -8.05 227.5 0C227.5 8.61 184.31 18.29 140 33.33" stroke="rgba(51, 121, 194, 0.19)" stroke-width="2"></path><path d="M1260 140C1238.46 140 1216.92 54.09 1216.92 0C1216.92 -15.91 1238.46 0 1260 0C1281.54 0 1303.08 -15.91 1303.08 0C1303.08 54.09 1281.54 140 1260 140" stroke="rgba(51, 121, 194, 0.19)" stroke-width="2"></path><path d="M1540 23.9C1517.54 23.9 1478.75 6.19 1478.75 0C1478.75 -5.76 1517.97 -8.6 1540 0C1548.6 3.35 1548.16 23.9 1540 23.9" stroke="rgba(51, 121, 194, 0.19)" stroke-width="2"></path><path d="M0 176.4C41.02 158.82 73.23 191.04 140 220C192.64 242.84 238.82 249.46 238.82 280C238.82 310.96 188.81 310.59 140 343C83.4 380.59 60.17 366.81 28 420C-5.45 475.31 21.93 494.08 8.75 560C7.93 564.08 0.26 564.12 0 560C-4.12 494.12 0 490 0 420C0 350 0 350 0 280C0 228.2 -28.98 188.82 0 176.4" stroke="rgba(51, 121, 194, 0.19)" stroke-width="2"></path><path d="M336.76 280C336.76 256.1 378.23 229.51 420 229.51C462.63 229.51 505.56 256.12 505.56 280C505.56 303.06 462.66 323.38 420 323.38C378.26 323.38 336.76 303.04 336.76 280" stroke="rgba(51, 121, 194, 0.19)" stroke-width="2"></path><path d="M528.89 420C528.89 387.49 542.02 350 560 350C579.35 350 603.56 388.8 603.56 420C603.56 441 580.34 454.39 560 454.39C543 454.39 528.89 439.68 528.89 420" stroke="rgba(51, 121, 194, 0.19)" stroke-width="2"></path><path d="M221.82 560C221.82 541.82 250.29 498.63 280 498.63C310.93 498.63 343.1 542.13 343.1 560C343.1 572.81 311.55 560 280 560C250.91 560 221.82 572.51 221.82 560" stroke="rgba(51, 121, 194, 0.19)" stroke-width="2"></path><path d="M700 55.26C661.84 55.26 632.26 15.57 632.26 0C632.26 -12.06 666.13 0 700 0C770 0 840 -13.32 840 0C840 14.31 765.71 55.26 700 55.26" stroke="rgba(51, 121, 194, 0.19)" stroke-width="2"></path><path d="M951.4 140C951.4 106.82 964.98 71.79 980 71.79C995.3 71.79 1012.05 107 1012.05 140C1012.05 165.73 995.4 189.26 980 189.26C965.07 189.26 951.4 165.55 951.4 140" stroke="rgba(51, 121, 194, 0.19)" stroke-width="2"></path><path d="M0 246.4C56.52 239 71.97 248.24 140 261.67C157.07 265.04 170.2 270.67 170.2 280C170.2 289.46 156.66 292.93 140 299.25C71.56 325.24 48.64 351.31 0 344.62C-21.36 341.68 0 312.31 0 280C0 263.2 -13.48 248.17 0 246.4" stroke="rgba(51, 121, 194, 0.19)" stroke-width="2"></path><path d="M1065.96 280C1065.96 258.07 1090.54 244.19 1120 244.19C1172.56 244.19 1230 255.95 1230 280C1230 306.62 1169.31 345.53 1120 345.53C1087.29 345.53 1065.96 308.74 1065.96 280" stroke="rgba(51, 121, 194, 0.19)" stroke-width="2"></path><path d="M1286.25 420C1286.25 393.69 1340.92 372.75 1400 368C1467.79 362.54 1478.72 376.82 1540 399.58C1548.72 402.82 1540 409.79 1540 420C1540 490 1559.36 509.36 1540 560C1532.6 579.36 1507.78 573.16 1486.47 560C1437.78 529.93 1449.36 508.05 1400 473.53C1349.25 438.05 1286.25 446.45 1286.25 420" stroke="rgba(51, 121, 194, 0.19)" stroke-width="2"></path><path d="M267.27 560C267.27 556.03 273.5 546.58 280 546.58C286.76 546.58 293.8 556.09 293.8 560C293.8 562.8 286.9 560 280 560C273.63 560 267.27 562.74 267.27 560" stroke="rgba(51, 121, 194, 0.19)" stroke-width="2"></path></g><defs><mask id="SvgjsMask1011"><rect width="1440" height="560" fill="#ffffff"></rect></mask></defs></svg>