<svg id="Layer_1" data-name="Layer 1" xmlns="http://www.w3.org/2000/svg" viewBox="0 0 600 600"><defs><style>.cls-1{fill:#00a99d;}</style></defs><path class="cls-1" d="M75.47,337.67c19.55-.42,39.1-.89,58.65-1.14,3.4,0,4.41-.67,5.06-4.47,1.88-10.92,4.8-21.66,7.3-32.48,1.45-6.24,3.18-12.43,4.2-18.74.48-2.92,1.56-4.51,4.28-4.89a5.46,5.46,0,0,1,6.42,3.74,19.47,19.47,0,0,1,1,4.13c2.6,18.93,8.6,37.14,11.8,55.92,1.15,6.74,2.59,13.4,4.24,20.08a3.36,3.36,0,0,0,6.55-.12c.35-1.72.65-3.44.86-5.16A91.89,91.89,0,0,1,189.06,340a7.27,7.27,0,0,1,7.55-5.65c23.12-.13,46.24-.5,69.36-.61,2.89,0,4.09-.71,4.92-3.61,3.09-10.79,7.21-21.33,9.72-32.25,3.28-14.29,8.66-27.94,12-42.16,3.23-13.87,8.08-27.2,11.94-40.85.77-2.71.86-5.61,1.6-8.32,1.3-4.77,5.32-7.82,9.59-7.6s7.53,3.66,8.46,8.68c4,21.58,5.49,43.51,9.07,65.15,2.58,15.59,5.28,31.19,7,46.89,2.2,20.26,5.36,40.38,8.6,60.47,2.44,15.2,3.7,30.55,5.93,46.31a3.35,3.35,0,0,0,6.55.43l0-.13C365.78,410,371.43,393.62,376,377c3.24-11.78,7.13-23.32,10.53-35,2-6.74,4.05-8.33,11.19-8.29,22.41.14,44.83.27,67.23.6,3.15,0,4.55-.71,5.11-3.92,2.82-16.4,7.44-32.39,11.61-48.47.77-3,1-6.51,5.65-6.61,6.67-.15,8.38,1.5,8.81,8.3.5,7.83,2.6,15.42,4.3,23,4.45,19.87,7.11,40.08,11.29,60.73a3.36,3.36,0,0,0,6.56.07c.31-1.36.57-2.71.76-4.07,1.07-7.66,3.49-14.92,5.47-22.31,1-3.88,4.43-4.72,8.2-4.64,27.11.58,54.23,1,81.34,1.61l2.5.06a3.36,3.36,0,0,0,3.43-3.35V264.55A63.55,63.55,0,0,0,556.45,201H464.71A19.72,19.72,0,0,1,445,181.29V89.55A63.55,63.55,0,0,0,381.45,26H258.55A63.55,63.55,0,0,0,195,89.55v91.74A19.72,19.72,0,0,1,175.29,201H83.55A63.55,63.55,0,0,0,20,264.55v70.93a3.35,3.35,0,0,0,3.43,3.35Z" transform="translate(-20 -26)"/><path class="cls-1" d="M536.32,344.42c-3.31.07-4.75.32-5.55,4.44-3,15.22-6.8,30.26-10.31,45.37-.42,1.8-1.17,3.61-1.12,5.4.08,3.43-1.64,5.1-4.71,5.43a5.48,5.48,0,0,1-6.39-4.42c-.72-3-.69-6.23-1.36-9.27-3.26-14.73-7.11-29.35-9.82-44.18-2.3-12.59-5.18-25-7.91-37.51-.07-.36-.26-.69-1.26-1.18-1.26,5.7-3,11.36-3.65,17.13A89.07,89.07,0,0,1,480.77,341c-1,3.49-3.5,5.59-7.6,5.61-22.69.15-45.38.54-68.08.59-3.71,0-5.42.82-6.44,4.63-2.7,10.16-6.48,20.06-8.86,30.29-3.32,14.28-8.89,27.88-12.17,42.11-3.23,14-8.22,27.45-12,41.27-.74,2.71-.93,5.58-1.67,8.3-1.46,5.37-5.48,8.56-10,8.21s-7.58-4.17-8.55-9.7c-2.93-16.7-4.21-33.61-6.78-50.36-3.05-19.85-6.54-39.65-8.81-59.59-2.29-20.11-5.36-40.08-8.5-60-3.11-19.69-4.58-39.58-7.88-59.24,0-.21-.28-.38-.81-1-1.43,4.2-3,8-4,12-4.39,16.45-9.89,32.57-14.45,49-3.43,12.31-7.35,24.44-11.1,36.63-2.16,7-3.08,7.72-10.56,7.69-18.42-.07-36.83-.25-55.24-.39-4.14,0-8.31.16-12.41-.24-3.3-.33-4.52,1-5,4-2.86,16.7-7.59,33-11.9,49.31-1.49,5.67-3.43,7.22-8.13,6.42-2.5-.43-4.38-1.61-4.94-4.5-3.52-18.16-7.53-36.23-10.61-54.46-2.48-14.72-5.26-29.37-8.16-44a2.72,2.72,0,0,0-1.22-2c-1.3,5-3.18,9.85-3.77,14.88-.93,8-3.62,15.49-5.6,23.17-1,4-4.38,5.18-8.38,5.09-20.83-.49-41.67-.86-62.5-1.31Q49,342.7,23.43,342.1A3.36,3.36,0,0,0,20,345.45v42A63.55,63.55,0,0,0,83.55,451h91.74A19.72,19.72,0,0,1,195,470.71v91.74A63.55,63.55,0,0,0,258.55,626h122.9A63.55,63.55,0,0,0,445,562.45V470.71A19.72,19.72,0,0,1,464.71,451h91.74A63.55,63.55,0,0,0,620,387.45V346.14a3.35,3.35,0,0,0-3.42-3.35Q576.46,343.65,536.32,344.42Z" transform="translate(-20 -26)"/></svg>