<?xml version="1.0" encoding="utf-8"?>
<!-- Generator: Adobe Illustrator 26.0.1, SVG Export Plug-In . SVG Version: 6.00 Build 0)  -->
<svg version="1.1" id="Layer_1" xmlns="http://www.w3.org/2000/svg" xmlns:xlink="http://www.w3.org/1999/xlink" x="0px" y="0px"
	 viewBox="0 0 600 600" style="enable-background:new 0 0 600 600;" xml:space="preserve">
<style type="text/css">
	.st0{fill:#28334E;}
</style>
<g>
	<g>
		<path class="st0" d="M55.5,311.7c19.6-0.4,39.1-0.9,58.7-1.1c3.4,0,4.4-0.7,5.1-4.5c1.9-10.9,4.8-21.7,7.3-32.5
			c1.4-6.2,3.2-12.4,4.2-18.8c0.5-2.9,1.6-4.5,4.3-4.9c3-0.4,5.3,0.8,6.4,3.7c0.5,1.3,0.8,2.7,1,4.1c2.6,18.9,8.6,37.1,11.8,55.9
			c1.1,6.7,2.6,13.4,4.2,20.1c0.9,3.5,5.8,3.4,6.6-0.1c0.4-1.7,0.6-3.4,0.9-5.2c0.6-5,1.8-9.8,3.2-14.5c1-3.5,3.4-5.6,7.6-5.6
			c23.1-0.1,46.2-0.5,69.4-0.6c2.9,0,4.1-0.7,4.9-3.6c3.1-10.8,7.2-21.3,9.7-32.2c3.3-14.3,8.7-27.9,12-42.2
			c3.2-13.9,8.1-27.2,11.9-40.9c0.8-2.7,0.9-5.6,1.6-8.3c1.3-4.8,5.3-7.8,9.6-7.6c4.2,0.2,7.5,3.7,8.5,8.7c4,21.6,5.5,43.5,9.1,65.1
			c2.6,15.6,5.3,31.2,7,46.9c2.2,20.3,5.4,40.4,8.6,60.5c2.4,15.2,3.7,30.5,5.9,46.3c0.5,3.6,5.6,3.9,6.5,0.4c0,0,0-0.1,0-0.1
			c4.4-16.7,10.1-33.1,14.7-49.8c3.2-11.8,7.1-23.3,10.5-35c2-6.7,4-8.3,11.2-8.3c22.4,0.1,44.8,0.3,67.2,0.6c3.1,0,4.5-0.7,5.1-3.9
			c2.8-16.4,7.4-32.4,11.6-48.5c0.8-3,1-6.5,5.7-6.6c6.7-0.1,8.4,1.5,8.8,8.3c0.5,7.8,2.6,15.4,4.3,23c4.5,19.9,7.1,40.1,11.3,60.7
			c0.7,3.5,5.8,3.6,6.6,0.1c0.3-1.4,0.6-2.7,0.8-4.1c1.1-7.7,3.5-14.9,5.5-22.3c1-3.9,4.4-4.7,8.2-4.6c27.1,0.6,54.2,1,81.3,1.6
			c0.8,0,1.7,0,2.5,0.1c1.9,0,3.4-1.5,3.4-3.4v-70.1c0-35.1-28.5-63.6-63.5-63.6h-91.7c-10.9,0-19.7-8.8-19.7-19.7V63.5
			C425,28.5,396.5,0,361.5,0H238.6C203.4,0,175,28.5,175,63.5v91.7c0,10.9-8.8,19.7-19.7,19.7H63.5C28.5,175,0,203.4,0,238.6v70.9
			c0,1.9,1.5,3.4,3.4,3.4C20.8,312.5,38.1,312,55.5,311.7z"/>
	</g>
	<g>
		<path class="st0" d="M516.3,318.4c-3.3,0.1-4.8,0.3-5.6,4.4c-3,15.2-6.8,30.3-10.3,45.4c-0.4,1.8-1.2,3.6-1.1,5.4
			c0.1,3.4-1.6,5.1-4.7,5.4c-3.3,0.4-5.6-1.3-6.4-4.4c-0.7-3-0.7-6.2-1.4-9.3c-3.2-14.7-7.1-29.4-9.8-44.2
			c-2.3-12.6-5.2-25-7.9-37.5c-0.1-0.4-0.3-0.7-1.3-1.2c-1.3,5.7-3,11.4-3.7,17.1c-0.6,5.3-2,10.3-3.5,15.4c-1,3.5-3.5,5.6-7.6,5.6
			c-22.7,0.1-45.4,0.5-68.1,0.6c-3.7,0-5.4,0.8-6.4,4.6c-2.7,10.2-6.5,20.1-8.9,30.3c-3.3,14.3-8.9,27.9-12.2,42.1
			c-3.2,14-8.2,27.5-12,41.3c-0.8,2.7-0.9,5.6-1.7,8.3c-1.5,5.4-5.5,8.6-10,8.2c-4.4-0.4-7.6-4.2-8.5-9.7
			c-2.9-16.7-4.2-33.6-6.8-50.4c-3-19.9-6.5-39.6-8.8-59.6c-2.3-20.1-5.4-40.1-8.5-60c-3.1-19.7-4.6-39.6-7.9-59.2
			c0-0.2-0.3-0.4-0.8-1.1c-1.4,4.2-3,8-4,12c-4.4,16.4-9.9,32.6-14.5,49c-3.4,12.3-7.4,24.4-11.1,36.6c-2.1,7-3.1,7.7-10.6,7.7
			c-18.4-0.1-36.8-0.2-55.2-0.4c-4.1,0-8.3,0.2-12.4-0.2c-3.3-0.3-4.5,1-5,4c-2.9,16.7-7.6,33-11.9,49.3c-1.5,5.7-3.4,7.2-8.1,6.4
			c-2.5-0.4-4.4-1.6-4.9-4.5c-3.5-18.2-7.5-36.2-10.6-54.5c-2.5-14.7-5.3-29.4-8.2-44c-0.1-0.6-0.2-1.2-1.2-2
			c-1.3,5-3.2,9.8-3.8,14.9c-0.9,8-3.6,15.5-5.6,23.2c-1,4-4.4,5.2-8.4,5.1c-20.8-0.5-41.7-0.9-62.5-1.3c-17-0.4-34.1-0.8-51.2-1.1
			c-1.9-0.1-3.5,1.4-3.5,3.3v42C0,396.5,28.5,425,63.5,425h91.7c10.9,0,19.7,8.8,19.7,19.7v91.7c0,35.1,28.4,63.5,63.6,63.5h122.9
			c35.1,0,63.5-28.5,63.5-63.5v-91.7c0-10.9,8.8-19.7,19.7-19.7h91.7c35.1,0,63.5-28.5,63.5-63.5v-41.3c0-1.9-1.5-3.4-3.4-3.4
			C569.8,317.4,543.1,317.9,516.3,318.4z"/>
	</g>
</g>
</svg>
